<?xml version="1.0" encoding="UTF-8"?>
<svg version="1.1" xmlns="http://www.w3.org/2000/svg" width="500" height="500">
<path d="M0 0 C165 0 330 0 500 0 C500 165 500 330 500 500 C335 500 170 500 0 500 C0 335 0 170 0 0 Z " fill="#FF3131" transform="translate(0,0)"/>
<path d="M0 0 C14.96123335 -0.09392664 29.92244364 -0.16421378 44.88391018 -0.20724869 C51.83261986 -0.22777206 58.78114512 -0.25569371 65.72973633 -0.30175781 C72.44711372 -0.34626747 79.16426087 -0.3691997 85.88179207 -0.37950897 C88.43278055 -0.38684713 90.9837597 -0.40117533 93.53466606 -0.42292023 C110.29748887 -0.56000989 127.11845844 -0.5371471 142.3125 7.5625 C142.9614624 7.89983154 143.6104248 8.23716309 144.27905273 8.5847168 C157.06007365 15.57917251 166.45366073 26.31814048 171.4375 40.0625 C175.32377668 54.13350176 173.87270205 69.48556805 167.5 82.5625 C161.17420253 93.3444011 152.4455515 100.26597608 141 105 C142.2375 105.061875 143.475 105.12375 144.75 105.1875 C157.2881264 106.62662457 167.34576075 113.4117462 175.3125 122.875 C178.717932 127.36152152 181.17851434 131.67633417 183 137 C183.29777344 137.81082031 183.59554687 138.62164062 183.90234375 139.45703125 C186.02684717 146.30047775 186.31081365 153.01517267 186.375 160.125 C186.38885742 161.0430542 186.40271484 161.9611084 186.41699219 162.90698242 C186.30897594 178.77542248 178.88790284 193.32208213 167.8046875 204.3828125 C149.73067653 221.24853304 125.39137201 226.19840919 101.37817383 226.11352539 C99.72253418 226.11374443 99.72253418 226.11374443 98.03344727 226.1139679 C94.42462117 226.11327728 90.81584821 226.10552513 87.20703125 226.09765625 C84.68926522 226.09578904 82.17149882 226.09436657 79.6537323 226.09336853 C73.72899887 226.08995467 67.80428218 226.08209211 61.87955731 226.07201904 C54.46332802 226.05968734 47.04709632 226.05436167 39.63085938 226.04882812 C26.42056344 226.03813289 13.21028291 226.02128008 0 226 C0.8971875 224.2365625 0.8971875 224.2365625 1.8125 222.4375 C7.24131667 210.04894325 7.44027205 197.12947409 7.38818359 183.87231445 C7.39225957 182.10634031 7.39760716 180.34036872 7.40411377 178.57440186 C7.41766824 173.82457098 7.41253915 169.07493787 7.40297651 164.325104 C7.3953214 159.32994615 7.4024413 154.33480397 7.40713501 149.33964539 C7.41257413 140.95841465 7.40544797 132.57726354 7.39111328 124.19604492 C7.37477434 114.53188849 7.38009178 104.86792186 7.3965925 95.20376998 C7.41024097 86.87382083 7.41211111 78.54392853 7.40427649 70.21397179 C7.39962047 65.25286417 7.39891806 60.29184555 7.40888596 55.33074379 C7.41760306 50.66759041 7.41144777 46.00468008 7.39420319 41.34155273 C7.39026423 39.63888641 7.39132748 37.93619933 7.39799118 36.23354149 C7.44191054 23.8637301 6.75133186 12.70900916 0 2 C0 1.34 0 0.68 0 0 Z " fill="#FFFEFE" transform="translate(255,108)"/>
<path d="M0 0 C14.96123335 -0.09392664 29.92244364 -0.16421378 44.88391018 -0.20724869 C51.83261986 -0.22777206 58.78114512 -0.25569371 65.72973633 -0.30175781 C72.44711372 -0.34626747 79.16426087 -0.3691997 85.88179207 -0.37950897 C88.43278055 -0.38684713 90.9837597 -0.40117533 93.53466606 -0.42292023 C110.29748887 -0.56000989 127.11845844 -0.5371471 142.3125 7.5625 C142.9614624 7.89983154 143.6104248 8.23716309 144.27905273 8.5847168 C157.06007365 15.57917251 166.45366073 26.31814048 171.4375 40.0625 C175.32377668 54.13350176 173.87270205 69.48556805 167.5 82.5625 C161.17420253 93.3444011 152.4455515 100.26597608 141 105 C142.2375 105.061875 143.475 105.12375 144.75 105.1875 C157.2881264 106.62662457 167.34576075 113.4117462 175.3125 122.875 C178.717932 127.36152152 181.17851434 131.67633417 183 137 C183.29777344 137.81082031 183.59554687 138.62164062 183.90234375 139.45703125 C186.02684717 146.30047775 186.31081365 153.01517267 186.375 160.125 C186.38885742 161.0430542 186.40271484 161.9611084 186.41699219 162.90698242 C186.30897594 178.77542248 178.88790284 193.32208213 167.8046875 204.3828125 C149.73067653 221.24853304 125.39137201 226.19840919 101.37817383 226.11352539 C99.72253418 226.11374443 99.72253418 226.11374443 98.03344727 226.1139679 C94.42462117 226.11327728 90.81584821 226.10552513 87.20703125 226.09765625 C84.68926522 226.09578904 82.17149882 226.09436657 79.6537323 226.09336853 C73.72899887 226.08995467 67.80428218 226.08209211 61.87955731 226.07201904 C54.46332802 226.05968734 47.04709632 226.05436167 39.63085938 226.04882812 C26.42056344 226.03813289 13.21028291 226.02128008 0 226 C0.8971875 224.2365625 0.8971875 224.2365625 1.8125 222.4375 C7.24131667 210.04894325 7.44027205 197.12947409 7.38818359 183.87231445 C7.39225957 182.10634031 7.39760716 180.34036872 7.40411377 178.57440186 C7.41766824 173.82457098 7.41253915 169.07493787 7.40297651 164.325104 C7.3953214 159.32994615 7.4024413 154.33480397 7.40713501 149.33964539 C7.41257413 140.95841465 7.40544797 132.57726354 7.39111328 124.19604492 C7.37477434 114.53188849 7.38009178 104.86792186 7.3965925 95.20376998 C7.41024097 86.87382083 7.41211111 78.54392853 7.40427649 70.21397179 C7.39962047 65.25286417 7.39891806 60.29184555 7.40888596 55.33074379 C7.41760306 50.66759041 7.41144777 46.00468008 7.39420319 41.34155273 C7.39026423 39.63888641 7.39132748 37.93619933 7.39799118 36.23354149 C7.44191054 23.8637301 6.75133186 12.70900916 0 2 C0 1.34 0 0.68 0 0 Z " fill="#FFFEFE" transform="translate(59,108)"/>
<path d="M0 0 C7.21875 -0.04125 14.4375 -0.0825 21.875 -0.125 C24.13327637 -0.14320801 26.39155273 -0.16141602 28.71826172 -0.18017578 C30.53873457 -0.18602532 32.35921008 -0.19111978 34.1796875 -0.1953125 C35.10015869 -0.20554443 36.02062988 -0.21577637 36.96899414 -0.22631836 C47.64242099 -0.22914576 58.6147936 1.35357781 66.890625 8.671875 C73.15134981 15.54043717 73.62290686 23.20980622 73.375 32.140625 C72.6969289 39.11910674 69.59374351 42.68024025 64.625 47.3125 C58.49625191 52.21549847 51.73530721 54.13368296 43.93432617 54.11352539 C42.94009644 54.11340454 41.9458667 54.11328369 40.92150879 54.11315918 C39.88909058 54.10804321 38.85667236 54.10292725 37.79296875 54.09765625 C36.8347522 54.09664917 35.87653564 54.09564209 34.88928223 54.09460449 C31.32200925 54.0893865 27.75475338 54.07542525 24.1875 54.0625 C16.205625 54.041875 8.22375 54.02125 0 54 C0 36.18 0 18.36 0 0 Z " fill="#FF3333" transform="translate(315,236)"/>
<path d="M0 0 C7.21875 -0.04125 14.4375 -0.0825 21.875 -0.125 C24.13327637 -0.14320801 26.39155273 -0.16141602 28.71826172 -0.18017578 C30.53873457 -0.18602532 32.35921008 -0.19111978 34.1796875 -0.1953125 C35.10015869 -0.20554443 36.02062988 -0.21577637 36.96899414 -0.22631836 C47.64242099 -0.22914576 58.6147936 1.35357781 66.890625 8.671875 C73.15134981 15.54043717 73.62290686 23.20980622 73.375 32.140625 C72.6969289 39.11910674 69.59374351 42.68024025 64.625 47.3125 C58.49625191 52.21549847 51.73530721 54.13368296 43.93432617 54.11352539 C42.94009644 54.11340454 41.9458667 54.11328369 40.92150879 54.11315918 C39.88909058 54.10804321 38.85667236 54.10292725 37.79296875 54.09765625 C36.8347522 54.09664917 35.87653564 54.09564209 34.88928223 54.09460449 C31.32200925 54.0893865 27.75475338 54.07542525 24.1875 54.0625 C16.205625 54.041875 8.22375 54.02125 0 54 C0 36.18 0 18.36 0 0 Z " fill="#FF3333" transform="translate(119,236)"/>
<path d="M0 0 C6.22875 -0.061875 12.4575 -0.12375 18.875 -0.1875 C21.79255127 -0.22846802 21.79255127 -0.22846802 24.76904297 -0.27026367 C36.47458806 -0.36804966 46.52050443 -0.39488965 55.37109375 8.1875 C59.6464195 12.944697 60.5686071 17.23677811 60.34375 23.4765625 C59.56704981 29.17824799 56.98559849 33.35738514 52.875 37.3125 C42.92370107 44.7525841 30.65758417 43.35295009 18.875 43.1875 C12.64625 43.125625 6.4175 43.06375 0 43 C0 28.81 0 14.62 0 0 Z " fill="#FF3636" transform="translate(315,152)"/>
<path d="M0 0 C6.22875 -0.061875 12.4575 -0.12375 18.875 -0.1875 C21.79255127 -0.22846802 21.79255127 -0.22846802 24.76904297 -0.27026367 C36.47458806 -0.36804966 46.52050443 -0.39488965 55.37109375 8.1875 C59.6464195 12.944697 60.5686071 17.23677811 60.34375 23.4765625 C59.56704981 29.17824799 56.98559849 33.35738514 52.875 37.3125 C42.92370107 44.7525841 30.65758417 43.35295009 18.875 43.1875 C12.64625 43.125625 6.4175 43.06375 0 43 C0 28.81 0 14.62 0 0 Z " fill="#FF3636" transform="translate(119,152)"/>
</svg>
